:FULLY-SPECIFIED
:FORCE-ALL-JOINTS-BE-3DOF
:DEGREES
291
root 10.0642 16.8795 3.83415 5.51814 1.46642 3.31544
lfemur -2.85427 4.94345 -29.3269
ltibia 18.2391 0 0
lfoot -18.8812 4.15782 0
ltoes -3.66557 0 0
rfemur -37.0472 0.759099 15.2597
rtibia 41.8432 0 0
rfoot -21.0537 -11.3224 0
rtoes -23.9126 0 0
lowerback -5.74064 -3.57146 -4.58827
upperback -0.128101 -4.52941 2.09847
thorax 3.61186 -2.35276 4.33286
lowerneck -21.7439 -3.90926 -11.4658
upperneck 23.0475 -4.66858 11.1798
head 11.6889 -1.72124 5.35947
lclavicle 2.09718e-14 3.0922e-15 0
lhumerus -11.4048 -21.5559 86.2724
lradius 27.1431 0 0
lwrist 6.75472 0 0
lhand -15.922 -23.8866 0
lfingers 7.12502 0 0
lthumb 10.2755 5.84253 0
rclavicle 2.09718e-14 3.0922e-15 0
rhumerus -47.699 8.08407 -83.3621
rradius 40.6369 0 0
rwrist -23.5916 0 0
rhand -31.0102 -23.8947 0
rfingers 7.12502 0 0
rthumb -4.29293 -53.8316 0
292
root 10.0641 16.881 3.96923 5.72868 1.88659 3.34041
lfemur -1.95412 4.83211 -29.2495
ltibia 17.0112 0 0
lfoot -18.5849 3.85337 0
ltoes -2.98412 0 0
rfemur -37.5302 1.08465 14.9109
rtibia 39.9551 0 0
rfoot -21.1255 -10.7197 0
rtoes -23.3362 0 0
lowerback -6.02532 -3.6621 -4.64071
upperback -0.117892 -4.63486 2.10245
thorax 3.79873 -2.41026 4.33737
lowerneck -21.8254 -4.00635 -11.5031
upperneck 23.0339 -4.81111 11.2764
head 11.7237 -1.77444 5.37969
lclavicle 2.46649e-14 4.02539e-15 0
lhumerus -10.977 -22.7307 86.3318
lradius 27.638 0 0
lwrist 8.01223 0 0
lhand -15.8566 -23.4743 0
lfingers 7.12502 0 0
lthumb 10.3386 6.25177 0
rclavicle 2.46649e-14 4.02539e-15 0
rhumerus -47.7925 8.05601 -83.4234
rradius 40.4244 0 0
rwrist -23.4829 0 0
rhand -31.1071 -25.7313 0
rfingers 7.12502 0 0
rthumb -4.38654 -55.6663 0
293
root 10.0641 16.8825 4.10432 5.95417 2.32545 3.36427
lfemur -1.02099 4.69749 -29.1631
ltibia 15.6924 0 0
lfoot -18.2284 3.55623 0
ltoes -2.29054 0 0
rfemur -38.0049 1.49483 14.4913
rtibia 38.1015 0 0
rfoot -21.2634 -10.1541 0
rtoes -22.5715 0 0
lowerback -6.31707 -3.75621 -4.69515
upperback -0.115263 -4.74423 2.10827
thorax 3.98278 -2.46956 4.34387
lowerneck -21.8829 -4.10322 -11.5499
upperneck 23.0019 -4.95357 11.3808
head 11.7475 -1.82805 5.40369
lclavicle 2.77084e-14 5.30092e-15 0
lhumerus -10.5959 -23.926 86.4097
lradius 28.1692 0 0
lwrist 9.30042 0 0
lhand -15.7653 -23.0384 0
lfingers 7.12502 0 0
lthumb 10.4266 6.68329 0
rclavicle 2.77084e-14 5.30092e-15 0
rhumerus -47.8794 8.01162 -83.4745
rradius 40.1865 0 0
rwrist -23.3316 0 0
rhand -31.1794 -27.574 0
rfingers 7.12502 0 0
rthumb -4.45639 -57.5074 0
294
root 10.0641 16.884 4.23941 6.16395 2.76673 3.39891
lfemur 0.00905338 4.54799 -29.0811
ltibia 14.2438 0 0
lfoot -17.8169 3.29229 0
ltoes -1.72924 0 0
rfemur -38.4627 2.04734 13.9601
rtibia 36.3435 0 0
rfoot -21.4817 -9.74135 0
rtoes -21.7436 0 0
lowerback -6.5854 -3.85302 -4.76284
upperback -0.122477 -4.85683 2.11224
thorax 4.14512 -2.53004 4.35669
lowerneck -21.8875 -4.19136 -11.6041
upperneck 22.9605 -5.0836 11.4753
head 11.7555 -1.87943 5.4266
lclavicle 2.90609e-14 6.48811e-15 0
lhumerus -10.2858 -25.0959 86.5116
lradius 28.7331 0 0
lwrist 10.5618 0 0
lhand -15.6528 -22.6111 0
lfingers 7.12502 0 0
lthumb 10.5352 7.10499 0
rclavicle 2.90609e-14 6.48811e-15 0
rhumerus -47.9673 7.93821 -83.5075
rradius 39.9093 0 0
rwrist -23.1288 0 0
rhand -31.2322 -29.1052 0
rfingers 7.12502 0 0
rthumb -4.50737 -59.0373 0
295
root 10.0641 16.8855 4.3745 6.32741 3.19415 3.45623
lfemur 1.19993 4.39203 -29.0169
ltibia 12.6263 0 0
lfoot -17.3556 3.08744 0
ltoes -1.44458 0 0
rfemur -38.895 2.79986 13.2765
rtibia 34.7426 0 0
rfoot -21.7945 -9.59742 0
rtoes -20.9777 0 0
lowerback -6.79984 -3.95179 -4.85507
upperback -0.141798 -4.972 2.11064
thorax 4.26687 -2.59104 4.38017
lowerneck -21.8102 -4.26223 -11.6639
upperneck 22.9186 -5.18885 11.5423
head 11.7433 -1.92592 5.4436
lclavicle 2.76808e-14 7.15625e-15 0
lhumerus -10.0708 -26.1945 86.6425
lradius 29.3266 0 0
lwrist 11.739 0 0
lhand -15.5237 -22.2248 0
lfingers 7.12502 0 0
lthumb 10.6597 7.48477 0
rclavicle 2.76808e-14 7.15625e-15 0
rhumerus -48.0638 7.8231 -83.515
rradius 39.5789 0 0
rwrist -22.8658 0 0
rhand -31.2705 -30.0071 0
rfingers 7.12502 0 0
rthumb -4.54436 -59.9384 0
296
root 10.0608 16.883 4.52125 6.44252 3.62082 3.53429
lfemur 2.65652 4.21105 -28.9684
ltibia 10.6463 0 0
lfoot -16.7617 2.96752 0
ltoes -1.53969 0 0
rfemur -39.2858 3.80477 12.4104
rtibia 33.2696 0 0
rfoot -22.189 -9.71549 0
rtoes -20.0993 0 0
lowerback -6.95642 -4.05703 -4.97233
upperback -0.177572 -5.09594 2.10413
thorax 4.34211 -2.65546 4.41477
lowerneck -21.628 -4.31337 -11.7312
upperneck 22.8747 -5.26564 11.5751
head 11.705 -1.96746 5.4528
lclavicle 2.27633e-14 7.45995e-15 0
lhumerus -9.96152 -27.2455 86.7994
lradius 29.9704 0 0
lwrist 12.9057 0 0
lhand -15.3895 -21.8484 0
lfingers 7.12502 0 0
lthumb 10.7891 7.85458 0
rclavicle 2.27633e-14 7.45995e-15 0
rhumerus -48.1638 7.64518 -83.4909
rradius 39.1722 0 0
rwrist -22.505 0 0
rhand -31.3164 -30.1727 0
rfingers 7.12502 0 0
rthumb -4.58864 -60.1033 0
297
root 10.0575 16.8806 4.668 6.53339 4.06239 3.62318
lfemur 4.34866 3.99461 -28.9245
ltibia 8.29616 0 0
lfoot -16.0144 2.91697 0
ltoes -1.91968 0 0
rfemur -39.6387 5.02637 11.3883
rtibia 31.8697 0 0
rfoot -22.6516 -10.0015 0
rtoes -18.9735 0 0
lowerback -7.07874 -4.17023 -5.10571
upperback -0.228858 -5.23043 2.09579
thorax 4.38475 -2.72439 4.45711
lowerneck -21.3597 -4.35109 -11.8079
upperneck 22.8213 -5.32312 11.5865
head 11.6431 -2.00617 5.4577
lclavicle 1.49806e-14 7.77469e-15 0
lhumerus -9.94077 -28.2903 86.9774
lradius 30.6713 0 0
lwrist 14.1226 0 0
lhand -15.2488 -21.4499 0
lfingers 7.12502 0 0
lthumb 10.9249 8.24651 0
rclavicle 1.49806e-14 7.77469e-15 0
rhumerus -48.2602 7.41039 -83.4403
rradius 38.6955 0 0
rwrist -22.0457 0 0
rhand -31.3701 -29.8345 0
rfingers 7.12502 0 0
rthumb -4.64057 -59.7645 0
298
root 10.0542 16.8781 4.81475 6.60857 4.50637 3.72286
lfemur 6.1377 3.76328 -28.885
ltibia 5.81617 0 0
lfoot -15.2121 2.89963 0
ltoes -2.43194 0 0
rfemur -39.9747 6.3903 10.2546
rtibia 30.5656 0 0
rfoot -23.1944 -10.4405 0
rtoes -17.7845 0 0
lowerback -7.17764 -4.28614 -5.25234
upperback -0.289987 -5.36817 2.0856
thorax 4.40569 -2.79449 4.50576
lowerneck -21.0383 -4.38007 -11.8921
upperneck 22.7586 -5.36818 11.588
head 11.5655 -2.04264 5.46153
lclavicle 5.50695e-15 8.00109e-15 0
lhumerus -9.99094 -29.3097 87.1792
lradius 31.405 0 0
lwrist 15.3127 0 0
lhand -15.0869 -21.0601 0
lfingers 7.12502 0 0
lthumb 11.081 8.62862 0
rclavicle 5.50695e-15 8.00109e-15 0
rhumerus -48.3576 7.14658 -83.3717
rradius 38.1796 0 0
rwrist -21.5349 0 0
rhand -31.4044 -29.1848 0
rfingers 7.12502 0 0
rthumb -4.67362 -59.1146 0
299
root 10.051 16.8756 4.9615 6.67659 4.94028 3.83327
lfemur 7.88502 3.53769 -28.8496
ltibia 3.44662 0 0
lfoot -14.4532 2.87931 0
ltoes -2.92385 0 0
rfemur -40.3148 7.82218 9.05369
rtibia 29.3797 0 0
rfoot -23.83 -11.0173 0
rtoes -16.7166 0 0
lowerback -7.26398 -4.39951 -5.40938
upperback -0.355292 -5.50183 2.07351
thorax 4.4158 -2.86241 4.55932
lowerneck -20.6973 -4.40499 -11.9818
upperneck 22.6864 -5.40769 11.5913
head 11.4802 -2.07747 5.46749
lclavicle -4.48372e-15 8.03974e-15 0
lhumerus -10.0945 -30.2846 87.4077
lradius 32.1473 0 0
lwrist 16.399 0 0
lhand -14.889 -20.7097 0
lfingers 7.12502 0 0
lthumb 11.2719 8.96898 0
rclavicle -4.48372e-15 8.03974e-15 0
rhumerus -48.4606 6.88161 -83.2937
rradius 37.655 0 0
rwrist -21.0198 0 0
rhand -31.3916 -28.4156 0
rfingers 7.12502 0 0
rthumb -4.66128 -58.3459 0
300
root 10.0477 16.8732 5.10825 6.74603 5.35165 3.95435
lfemur 9.45196 3.33841 -28.8182
ltibia 1.4278 0 0
lfoot -13.836 2.81983 0
ltoes -3.24279 0 0
rfemur -40.68 9.24763 7.82975
rtibia 28.3348 0 0
rfoot -24.5706 -11.717 0
rtoes -15.954 0 0
lowerback -7.34863 -4.50507 -5.57397
upperback -0.419102 -5.62409 2.0595
thorax 4.42599 -2.92482 4.61637
lowerneck -20.3699 -4.43053 -12.0752
upperneck 22.6047 -5.44851 11.6079
head 11.3949 -2.11129 5.47882
lclavicle -1.38173e-14 7.79126e-15 0
lhumerus -10.2337 -31.1958 87.6655
lradius 32.8739 0 0
lwrist 17.3045 0 0
lhand -14.6403 -20.4295 0
lfingers 7.12502 0 0
lthumb 11.5117 9.23564 0
rclavicle -1.38173e-14 7.79126e-15 0
rhumerus -48.5739 6.64334 -83.2151
rradius 37.1523 0 0
rwrist -20.5472 0 0
rhand -31.3044 -27.7192 0
rfingers 7.12502 0 0
rthumb -4.57703 -57.6509 0
301
root 10.0444 16.8707 5.255 6.82541 5.72797 4.08604
lfemur 10.6999 3.18606 -28.7904
ltibia -3.18055e-14 0 0
lfoot -13.4589 2.68501 0
ltoes -3.23616 0 0
rfemur -41.0915 10.5923 6.62715
rtibia 27.4533 0 0
rfoot -25.4287 -12.5245 0
rtoes -15.681 0 0
lowerback -7.44243 -4.59758 -5.74325
upperback -0.475751 -5.72765 2.04354
thorax 4.44712 -2.97836 4.67547
lowerneck -20.0893 -4.46138 -12.1704
upperneck 22.5136 -5.49752 11.6494
head 11.3176 -2.14468 5.49872
lclavicle -2.13197e-14 7.15625e-15 0
lhumerus -10.3911 -32.0241 87.9553
lradius 33.5603 0 0
lwrist 17.9523 0 0
lhand -14.3261 -20.2501 0
lfingers 7.12502 0 0
lthumb 11.8147 9.39668 0
rclavicle -2.13197e-14 7.15625e-15 0
rhumerus -48.7022 6.45961 -83.1443
rradius 36.7021 0 0
rwrist -20.1642 0 0
rhand -31.1152 -27.2876 0
rfingers 7.12502 0 0
rthumb -4.39434 -57.2221 0
302
root 10.0397 16.8511 5.41013 6.91652 6.07236 4.24899
lfemur 11.574 3.07767 -28.7902
ltibia -0.730689 0 0
lfoot -13.3859 2.4597 0
ltoes -2.72326 0 0
rfemur -41.6076 12.0486 5.26904
rtibia 26.7722 0 0
rfoot -26.5989 -13.6278 0
rtoes -16.1049 0 0
lowerback -7.54419 -4.6793 -5.93699
upperback -0.528136 -5.81365 2.02303
thorax 4.47757 -3.02385 4.74477
lowerneck -19.8383 -4.49597 -12.2812
upperneck 22.4003 -5.55207 11.7265
head 11.2407 -2.17688 5.53366
lclavicle -2.7417e-14 5.55309e-15 0
lhumerus -10.5744 -32.7448 88.2886
lradius 34.2135 0 0
lwrist 18.3045 0 0
lhand -13.9178 -20.185 0
lfingers 7.12502 0 0
lthumb 12.2083 9.43721 0
rclavicle -2.7417e-14 5.55309e-15 0
rhumerus -48.8597 6.33857 -83.0732
rradius 36.3147 0 0
rwrist -19.8834 0 0
rhand -30.7634 -27.1765 0
rfingers 7.12502 0 0
rthumb -4.05457 -57.1159 0
303
root 10.035 16.8314 5.56527 7.01288 6.39542 4.44736
lfemur 12.1743 2.99618 -28.8227
ltibia -0.935281 0 0
lfoot -13.5512 2.16982 0
ltoes -1.79004 0 0
rfemur -42.2231 13.7146 3.68462
rtibia 26.2807 0 0
rfoot -28.1104 -15.0765 0
rtoes -17.1198 0 0
lowerback -7.64499 -4.7549 -6.16143
upperback -0.581373 -5.88817 1.99749
thorax 4.50829 -3.06413 4.82703
lowerneck -19.5869 -4.53026 -12.412
upperneck 22.2623 -5.60613 11.832
head 11.1565 -2.20726 5.58236
lclavicle -3.31336e-14 2.94496e-15 0
lhumerus -10.7993 -33.3684 88.6655
lradius 34.8542 0 0
lwrist 18.4153 0 0
lhand -13.4215 -20.2121 0
lfingers 7.12502 0 0
lthumb 12.6868 9.37979 0
rclavicle -3.31336e-14 2.94496e-15 0
rhumerus -49.0456 6.25957 -82.9933
rradius 35.9677 0 0
rwrist -19.6697 0 0
rhand -30.2587 -27.2433 0
rfingers 7.12502 0 0
rthumb -3.56719 -57.1896 0
304
root 10.0303 16.8118 5.7204 7.11064 6.69594 4.65641
lfemur 12.5942 2.94101 -28.859
ltibia -0.789144 0 0
lfoot -13.8582 1.84078 0
ltoes -0.683866 0 0
rfemur -42.8638 15.3742 2.07721
rtibia 25.9301 0 0
rfoot -29.7269 -16.6481 0
rtoes -18.4401 0 0
lowerback -7.74409 -4.8227 -6.39341
upperback -0.633115 -5.95131 1.97002
thorax 4.53909 -3.09889 4.91278
lowerneck -19.349 -4.56517 -12.5465
upperneck 22.1149 -5.6615 11.9509
head 11.0723 -2.23662 5.63641
lclavicle -3.81931e-14 4.96969e-17 0
lhumerus -11.0599 -33.9282 89.0717
lradius 35.4792 0 0
lwrist 18.3453 0 0
lhand -12.8744 -20.3094 0
lfingers 7.12502 0 0
lthumb 13.2141 9.24869 0
rclavicle -3.81931e-14 4.96969e-17 0
rhumerus -49.2417 6.20726 -82.9126
rradius 35.6425 0 0
rwrist -19.4985 0 0
rhand -29.6796 -27.3828 0
rfingers 7.12502 0 0
rthumb -3.0079 -57.337 0
